HIERARCHY
ROOT Hips
{
    OFFSET 0.000000 97.120003 0.000000
    CHANNELS 6 Xposition Yposition Zposition Yrotation Xrotation Zrotation
    JOINT RightUpLeg
    {
        OFFSET -11.000000 -0.000000 0.000000
        CHANNELS 3 Yrotation Xrotation Zrotation
        JOINT RightLeg
        {
            OFFSET 0.000000 -45.062000 0.000000
            CHANNELS 3 Yrotation Xrotation Zrotation
            JOINT RightFoot
            {
                OFFSET 0.000000 -42.057999 0.000000
                CHANNELS 3 Yrotation Xrotation Zrotation
                End Site
                {
                    OFFSET 0.000000 -10.000000 15.120000
                }
            }
        }
    }
    JOINT LeftUpLeg
    {
        OFFSET 11.000000 -0.000000 0.000000
        CHANNELS 3 Yrotation Xrotation Zrotation
        JOINT LeftLeg
        {
            OFFSET 0.000000 -45.062000 0.000000
            CHANNELS 3 Yrotation Xrotation Zrotation
            JOINT LeftFoot
            {
                OFFSET 0.000000 -42.057999 0.000000
                CHANNELS 3 Yrotation Xrotation Zrotation
                End Site
                {
                    OFFSET 0.000000 -10.000000 15.120000
                }
            }
        }
    }
    JOINT Spine
    {
        OFFSET 0.000000 8.120000 0.000000
        CHANNELS 3 Yrotation Xrotation Zrotation
        JOINT Spine1
        {
            OFFSET 0.000000 17.980000 0.000000
            CHANNELS 3 Yrotation Xrotation Zrotation
            JOINT Spine2
            {
                OFFSET 0.000000 12.760000 0.000000
                CHANNELS 3 Yrotation Xrotation Zrotation
                JOINT Neck
                {
                    OFFSET 0.000000 19.139999 0.000000
                    CHANNELS 3 Yrotation Xrotation Zrotation
                    JOINT Neck1
                    {
                        OFFSET 0.000000 4.250000 0.000000
                        CHANNELS 3 Yrotation Xrotation Zrotation
                        JOINT Head
                        {
                            OFFSET 0.000000 4.250000 0.000000
                            CHANNELS 3 Yrotation Xrotation Zrotation
                            End Site
                            {
                                OFFSET 0.000000 19.120001 0.000000
                            }
                        }
                    }
                }
                JOINT RightShoulder
                {
                    OFFSET -2.900000 13.340000 0.000000
                    CHANNELS 3 Yrotation Xrotation Zrotation
                    JOINT RightArm
                    {
                        OFFSET -16.100000 0.000000 0.000000
                        CHANNELS 3 Yrotation Xrotation Zrotation
                        JOINT RightForeArm
                        {
                            OFFSET -28.000000 0.000000 0.000000
                            CHANNELS 3 Yrotation Xrotation Zrotation
                            JOINT RightHand
                            {
                                OFFSET -26.000000 0.000000 0.000000
                                CHANNELS 3 Yrotation Xrotation Zrotation
                                JOINT RightHandThumb1
                                {
                                    OFFSET -1.937000 -0.484000 2.518000
                                    CHANNELS 3 Yrotation Xrotation Zrotation
                                    JOINT RightHandThumb2
                                    {
                                        OFFSET -3.872000 0.000000 0.000000
                                        CHANNELS 3 Yrotation Xrotation Zrotation
                                        JOINT RightHandThumb3
                                        {
                                            OFFSET -2.690000 0.000000 0.000000
                                            CHANNELS 3 Yrotation Xrotation Zrotation
                                            End Site
                                            {
                                                OFFSET -2.537000 0.000000 0.000000
                                            }
                                        }
                                    }
                                }
                                JOINT RightInHandIndex
                                {
                                    OFFSET -3.389000 0.535000 2.080000
                                    CHANNELS 3 Yrotation Xrotation Zrotation
                                    JOINT RightHandIndex1
                                    {
                                        OFFSET -5.485000 -0.096000 1.051000
                                        CHANNELS 3 Yrotation Xrotation Zrotation
                                        JOINT RightHandIndex2
                                        {
                                            OFFSET -3.806000 0.000000 0.000000
                                            CHANNELS 3 Yrotation Xrotation Zrotation
                                            JOINT RightHandIndex3
                                            {
                                                OFFSET -2.158000 0.000000 0.000000
                                                CHANNELS 3 Yrotation Xrotation Zrotation
                                                End Site
                                                {
                                                    OFFSET -1.898000 0.000000 0.000000
                                                }
                                            }
                                        }
                                    }
                                }
                                JOINT RightInHandMiddle
                                {
                                    OFFSET -3.556000 0.544000 0.796000
                                    CHANNELS 3 Yrotation Xrotation Zrotation
                                    JOINT RightHandMiddle1
                                    {
                                        OFFSET -5.441000 -0.088000 0.330000
                                        CHANNELS 3 Yrotation Xrotation Zrotation
                                        JOINT RightHandMiddle2
                                        {
                                            OFFSET -4.153000 0.000000 0.000000
                                            CHANNELS 3 Yrotation Xrotation Zrotation
                                            JOINT RightHandMiddle3
                                            {
                                                OFFSET -2.603000 0.000000 0.000000
                                                CHANNELS 3 Yrotation Xrotation Zrotation
                                                End Site
                                                {
                                                    OFFSET -2.076000 0.000000 0.000000
                                                }
                                            }
                                        }
                                    }
                                }
                                JOINT RightInHandRing
                                {
                                    OFFSET -3.539000 0.566000 -0.136000
                                    CHANNELS 3 Yrotation Xrotation Zrotation
                                    JOINT RightHandRing1
                                    {
                                        OFFSET -4.873000 -0.023000 -0.504000
                                        CHANNELS 3 Yrotation Xrotation Zrotation
                                        JOINT RightHandRing2
                                        {
                                            OFFSET -3.619000 0.000000 0.000000
                                            CHANNELS 3 Yrotation Xrotation Zrotation
                                            JOINT RightHandRing3
                                            {
                                                OFFSET -2.511000 0.000000 0.000000
                                                CHANNELS 3 Yrotation Xrotation Zrotation
                                                End Site
                                                {
                                                    OFFSET -1.952000 0.000000 0.000000
                                                }
                                            }
                                        }
                                    }
                                }
                                JOINT RightInHandPinky
                                {
                                    OFFSET -3.324000 0.494000 -1.264000
                                    CHANNELS 3 Yrotation Xrotation Zrotation
                                    JOINT RightHandPinky1
                                    {
                                        OFFSET -4.354000 -0.023000 -1.147000
                                        CHANNELS 3 Yrotation Xrotation Zrotation
                                        JOINT RightHandPinky2
                                        {
                                            OFFSET -2.898000 0.000000 0.000000
                                            CHANNELS 3 Yrotation Xrotation Zrotation
                                            JOINT RightHandPinky3
                                            {
                                                OFFSET -1.831000 0.000000 0.000000
                                                CHANNELS 3 Yrotation Xrotation Zrotation
                                                End Site
                                                {
                                                    OFFSET -1.730000 0.000000 0.000000
                                                }
                                            }
                                        }
                                    }
                                }
                            }
                        }
                    }
                }
                JOINT LeftShoulder
                {
                    OFFSET 2.900000 13.340000 0.000000
                    CHANNELS 3 Yrotation Xrotation Zrotation
                    JOINT LeftArm
                    {
                        OFFSET 16.100000 0.000000 0.000000
                        CHANNELS 3 Yrotation Xrotation Zrotation
                        JOINT LeftForeArm
                        {
                            OFFSET 28.000000 0.000000 0.000000
                            CHANNELS 3 Yrotation Xrotation Zrotation
                            JOINT LeftHand
                            {
                                OFFSET 26.000000 0.000000 0.000000
                                CHANNELS 3 Yrotation Xrotation Zrotation
                                JOINT LeftHandThumb1
                                {
                                    OFFSET 1.937000 -0.484000 2.518000
                                    CHANNELS 3 Yrotation Xrotation Zrotation
                                    JOINT LeftHandThumb2
                                    {
                                        OFFSET 3.872000 0.000000 0.000000
                                        CHANNELS 3 Yrotation Xrotation Zrotation
                                        JOINT LeftHandThumb3
                                        {
                                            OFFSET 2.690000 0.000000 0.000000
                                            CHANNELS 3 Yrotation Xrotation Zrotation
                                            End Site
                                            {
                                                OFFSET 2.537000 0.000000 0.000000
                                            }
                                        }
                                    }
                                }
                                JOINT LeftInHandIndex
                                {
                                    OFFSET 3.389000 0.535000 2.080000
                                    CHANNELS 3 Yrotation Xrotation Zrotation
                                    JOINT LeftHandIndex1
                                    {
                                        OFFSET 5.485000 -0.096000 1.051000
                                        CHANNELS 3 Yrotation Xrotation Zrotation
                                        JOINT LeftHandIndex2
                                        {
                                            OFFSET 3.806000 0.000000 0.000000
                                            CHANNELS 3 Yrotation Xrotation Zrotation
                                            JOINT LeftHandIndex3
                                            {
                                                OFFSET 2.158000 0.000000 0.000000
                                                CHANNELS 3 Yrotation Xrotation Zrotation
                                                End Site
                                                {
                                                    OFFSET 1.898000 0.000000 0.000000
                                                }
                                            }
                                        }
                                    }
                                }
                                JOINT LeftInHandMiddle
                                {
                                    OFFSET 3.556000 0.544000 0.796000
                                    CHANNELS 3 Yrotation Xrotation Zrotation
                                    JOINT LeftHandMiddle1
                                    {
                                        OFFSET 5.441000 -0.088000 0.330000
                                        CHANNELS 3 Yrotation Xrotation Zrotation
                                        JOINT LeftHandMiddle2
                                        {
                                            OFFSET 4.153000 0.000000 0.000000
                                            CHANNELS 3 Yrotation Xrotation Zrotation
                                            JOINT LeftHandMiddle3
                                            {
                                                OFFSET 2.603000 0.000000 0.000000
                                                CHANNELS 3 Yrotation Xrotation Zrotation
                                                End Site
                                                {
                                                    OFFSET 2.076000 0.000000 0.000000
                                                }
                                            }
                                        }
                                    }
                                }
                                JOINT LeftInHandRing
                                {
                                    OFFSET 3.539000 0.566000 -0.136000
                                    CHANNELS 3 Yrotation Xrotation Zrotation
                                    JOINT LeftHandRing1
                                    {
                                        OFFSET 4.873000 -0.023000 -0.504000
                                        CHANNELS 3 Yrotation Xrotation Zrotation
                                        JOINT LeftHandRing2
                                        {
                                            OFFSET 3.619000 0.000000 0.000000
                                            CHANNELS 3 Yrotation Xrotation Zrotation
                                            JOINT LeftHandRing3
                                            {
                                                OFFSET 2.511000 0.000000 0.000000
                                                CHANNELS 3 Yrotation Xrotation Zrotation
                                                End Site
                                                {
                                                    OFFSET 1.952000 0.000000 0.000000
                                                }
                                            }
                                        }
                                    }
                                }
                                JOINT LeftInHandPinky
                                {
                                    OFFSET 3.324000 0.494000 -1.264000
                                    CHANNELS 3 Yrotation Xrotation Zrotation
                                    JOINT LeftHandPinky1
                                    {
                                        OFFSET 4.354000 -0.023000 -1.147000
                                        CHANNELS 3 Yrotation Xrotation Zrotation
                                        JOINT LeftHandPinky2
                                        {
                                            OFFSET 2.898000 0.000000 0.000000
                                            CHANNELS 3 Yrotation Xrotation Zrotation
                                            JOINT LeftHandPinky3
                                            {
                                                OFFSET 1.831000 0.000000 0.000000
                                                CHANNELS 3 Yrotation Xrotation Zrotation
                                                End Site
                                                {
                                                    OFFSET 1.730000 0.000000 0.000000
                                                }
                                            }
                                        }
                                    }
                                }
                            }
                        }
                    }
                }
            }
        }
    }
}
MOTION
Frames: 4
Frame Time: 0.020000
16.254513 89.863914 -244.151047 161.907074 -159.303528 178.770798 0.443973 1.299628 -7.840622 4.762334 31.188566 -8.880481 15.112060 -17.218681 14.900454 18.577986 5.741306 21.180929 5.732039 41.286316 5.401875 172.066879 -152.329071 168.383865 179.745865 171.000824 176.422409 179.746948 171.184525 174.064697 0.414548 6.004193 -7.868723 0.000089 0.014816 6.398055 0.000101 0.017288 6.626559 170.168884 179.324432 -176.174393 167.717697 -178.934631 177.069168 54.365868 -13.055819 -22.274485 52.327412 -12.025310 -24.035149 2.911602 -5.737926 -37.078587 46.634377 44.380165 21.562344 0.025018 0.122091 15.061731 179.995895 179.917099 -169.968872 0.000002 0.000000 -0.000003 15.000072 0.000012 34.511486 0.000064 0.000030 28.236677 0.000038 0.000038 19.765644 0.000002 0.000000 -0.000003 179.935730 179.995148 -126.166588 179.957092 -179.951874 -126.166489 0.008248 -0.042151 35.853043 0.000002 0.000000 -0.000003 169.889572 179.991638 -125.643089 179.926773 -179.916885 -125.642952 0.015104 -0.072219 36.201687 0.000002 0.000000 -0.000003 159.984482 179.999069 -141.538559 179.980850 -179.986633 -122.307800 0.000656 -0.015544 38.423000 169.079971 -179.175034 178.348801 133.573425 -154.129608 162.772476 94.508461 166.614426 152.966324 159.686035 169.967972 -162.603989 135.788666 131.714737 152.983643 0.000960 -0.001168 -18.072609 0.000370 -0.000947 -12.036359 0.000000 -0.000000 0.000000 165.000214 -179.999573 129.724396 179.999847 -179.999649 138.865402 179.999756 -179.999893 151.205780 0.000000 -0.000000 0.000000 0.000162 -0.000892 -55.018463 179.999359 -179.999359 124.981590 179.999405 179.999893 143.357666 0.000000 -0.000000 0.000000 9.999990 -0.001080 -54.924984 179.999115 -179.999390 125.075050 179.999329 179.999741 143.419968 0.000000 -0.000000 0.000000 19.999807 -0.000803 -54.088543 179.998886 -179.999481 98.867043 179.999573 179.999313 125.965439
16.270723 89.835220 -244.152878 161.608078 -159.019760 178.609726 0.574968 1.425883 -7.707591 4.882059 31.377541 -8.764119 15.285316 -17.363537 14.843593 18.448330 5.907198 21.264774 6.027894 41.715446 5.609615 172.419815 -152.057312 168.317322 179.701859 171.061768 176.346558 179.703064 171.246384 173.942947 0.231420 5.907999 -8.053364 179.999786 179.887650 -173.577240 179.999756 179.868912 -173.347839 170.537811 179.270111 -176.167801 167.509949 -178.948624 176.903976 52.602879 -10.320861 -22.604221 52.525524 -12.291752 -21.155045 1.011106 -6.098110 -28.762640 51.452263 45.068485 25.051497 0.048636 0.264096 14.272833 179.991852 179.821335 -170.494400 0.000000 0.000002 0.000000 14.998494 0.000863 34.713268 179.998596 -179.999863 -151.598297 179.999176 -179.999466 -160.118774 0.000000 0.000002 0.000000 179.876129 179.972107 -127.582909 179.899780 -179.922028 -127.582809 179.998154 -179.915421 -145.090195 0.000000 0.000002 0.000000 169.876480 179.978455 -127.867332 179.905350 -179.917770 -127.867302 0.002993 -0.083477 34.720352 0.000000 0.000002 0.000000 160.040436 -179.994644 -142.131073 0.052558 0.031258 56.803410 0.001480 0.040718 37.831066 169.160690 -179.056290 178.362930 133.996613 -154.088013 162.672043 94.058464 166.187668 151.878189 159.528137 170.003510 -163.053818 136.703262 132.352829 153.782303 0.001132 -0.001171 -18.239695 0.000471 -0.000987 -12.147644 180.000000 -180.000000 179.999985 165.001389 -179.998871 129.716400 0.000009 -0.001461 -41.141117 179.999329 -179.999222 151.201202 180.000000 -180.000000 179.999985 0.001733 -0.001919 -55.079052 179.999420 -179.997482 124.920906 179.998413 -179.999359 143.317383 180.000000 -180.000000 179.999985 10.001459 -0.002227 -54.997913 179.999008 -179.997528 125.002136 179.998291 -179.999603 143.371429 180.000000 -180.000000 179.999985 20.000866 -0.002246 -54.087891 179.998016 -179.996994 98.868202 179.997833 179.998978 125.966217
16.299932 89.889839 -244.187424 161.347916 -158.979050 178.453323 1.155699 1.227319 -7.474436 4.376600 31.689934 -8.700570 15.537150 -17.304329 14.652125 18.469482 5.880417 21.283186 6.381464 41.858170 5.852147 172.528198 -151.951004 168.305649 179.694305 171.235031 176.274734 179.695511 171.416855 173.823456 0.196605 5.768410 -8.209768 179.999710 179.796356 -173.543503 179.999664 179.762405 -173.312912 170.711288 179.207275 -176.156616 167.026718 -179.099045 176.675568 50.706387 -7.607838 -23.384834 53.422100 -12.103898 -19.763227 178.804169 -175.021255 162.273727 56.968346 46.625381 26.856678 0.094463 0.248167 12.006213 0.030634 0.174200 7.996046 180.000000 180.000000 -180.000000 14.961709 0.054217 36.878113 179.949005 179.981216 -149.827026 179.962311 -179.994614 -158.878876 180.000000 180.000000 -180.000000 179.816391 179.927612 -129.783798 179.822693 -179.913223 -129.783600 179.963989 -179.873505 -146.555908 180.000000 180.000000 -180.000000 169.797409 179.941315 -129.145477 179.822601 -179.885818 -129.145279 179.980453 -179.860809 -146.130844 180.000000 180.000000 -180.000000 159.972885 179.994003 -141.143845 179.962585 -179.981644 -121.715668 179.997208 -179.972397 -141.182709 169.249863 -179.027191 178.419861 133.804672 -154.438339 162.483536 94.009155 166.230179 151.153976 159.416977 170.191422 -163.679642 137.155594 133.281204 154.370743 0.000566 -0.001085 -18.353130 0.000127 -0.000780 -12.223181 0.000000 -0.000000 0.000000 165.002060 -179.998718 129.545151 0.000268 -0.001979 -41.281200 179.999237 -179.998840 151.103119 0.000000 -0.000000 0.000000 0.000322 -0.000266 -55.546597 179.999969 -179.999588 124.453476 179.999756 -179.999863 143.005951 0.000000 -0.000000 0.000000 10.000977 -0.001110 -55.462719 179.999634 -179.998566 124.537254 179.999084 -179.999664 143.061844 0.000000 -0.000000 0.000000 20.000725 -0.001393 -54.537006 179.998932 -179.997894 98.194443 179.998535 179.999481 125.517502
16.326752 90.008385 -244.257095 161.238922 -159.115173 178.339951 1.527251 0.916768 -7.355393 3.421357 31.830215 -8.793077 16.235710 -17.087801 14.358758 18.546579 5.758907 21.245710 6.350481 41.718086 5.880384 172.719986 -152.047302 168.222351 179.693420 171.385559 176.203629 179.694702 171.564819 173.704483 0.196314 5.650716 -8.361526 179.999847 179.845062 -173.526291 179.999817 179.819229 -173.295090 170.879044 179.255508 -176.137253 166.348282 -179.302612 176.557297 49.345783 -5.595067 -24.839245 54.086494 -11.330590 -19.431118 178.028122 -177.212845 175.439392 59.246025 45.393860 25.291439 0.143664 0.271356 10.233656 0.066041 0.193543 6.815491 0.000000 -0.000000 0.000000 15.046536 0.170936 35.077637 179.962433 179.859879 -151.300171 179.934677 179.922165 -159.910141 0.000000 -0.000000 0.000000 179.810440 179.858887 -132.702042 179.765411 -179.970200 -132.701706 179.902374 -179.876328 -148.499329 0.000000 -0.000000 0.000000 169.667725 179.839218 -130.372391 179.653809 -179.871384 -130.371582 179.904465 -179.773224 -146.947540 0.000000 -0.000000 0.000000 159.801773 179.929398 -139.515503 179.701492 -179.896835 -119.272781 179.956161 -179.794235 -139.555756 169.197678 -179.015869 178.568924 133.436081 -155.012878 162.575638 93.821281 167.039948 150.685059 159.683868 170.444977 -164.525681 136.414764 133.562866 153.581955 0.000015 -0.000146 -18.461418 179.999985 -179.999908 167.704712 0.000000 -0.000000 0.000003 164.999863 179.999847 129.157410 0.000017 0.000161 -41.598427 0.000089 0.000080 -29.118923 0.000000 -0.000000 0.000003 179.998474 179.997269 124.145683 0.001386 0.002801 -55.854351 0.002063 0.000289 -37.199020 0.000000 -0.000000 0.000003 9.999259 0.003029 -55.973732 0.002087 0.002318 -55.973724 0.002058 -0.000279 -37.278519 0.000000 -0.000000 0.000003 20.000118 0.001734 -55.073116 0.002245 0.001326 -82.609764 0.001075 -0.001362 -55.018101
